<?xml version="1.0" encoding="UTF-8" standalone="no"?>
<!DOCTYPE svg PUBLIC "-//W3C//DTD SVG 1.1//EN"
 "http://www.w3.org/Graphics/SVG/1.1/DTD/svg11.dtd">
<!-- Generated by graphviz version 2.43.0 (0)
 -->
<!-- Title: G Pages: 1 -->
<svg width="1431pt" height="354pt"
 viewBox="0.00 0.00 1431.20 354.27" xmlns="http://www.w3.org/2000/svg" xmlns:xlink="http://www.w3.org/1999/xlink">
<g id="graph0" class="graph" transform="scale(1 1) rotate(0) translate(21.6 332.67)">
<title>G</title>
<polygon fill="#111111" stroke="transparent" points="-21.6,21.6 -21.6,-332.67 1409.6,-332.67 1409.6,21.6 -21.6,21.6"/>
<!-- ../domain/length.ts -->
<g id="node1" class="node">
<title>../domain/length.ts</title>
<path fill="none" stroke="#c6c5fe" d="M1227.33,-235.07C1227.33,-235.07 1114.67,-235.07 1114.67,-235.07 1110.83,-235.07 1107,-231.24 1107,-227.4 1107,-227.4 1107,-219.74 1107,-219.74 1107,-215.9 1110.83,-212.07 1114.67,-212.07 1114.67,-212.07 1227.33,-212.07 1227.33,-212.07 1231.17,-212.07 1235,-215.9 1235,-219.74 1235,-219.74 1235,-227.4 1235,-227.4 1235,-231.24 1231.17,-235.07 1227.33,-235.07"/>
<text text-anchor="middle" x="1171" y="-219.87" font-family="Arial" font-size="14.00" fill="#c6c5fe">../domain/length.ts</text>
</g>
<!-- ../domain/ratio.ts -->
<g id="node2" class="node">
<title>../domain/ratio.ts</title>
<path fill="none" stroke="#cfffac" d="M1380.33,-215.07C1380.33,-215.07 1278.67,-215.07 1278.67,-215.07 1274.83,-215.07 1271,-211.24 1271,-207.4 1271,-207.4 1271,-199.74 1271,-199.74 1271,-195.9 1274.83,-192.07 1278.67,-192.07 1278.67,-192.07 1380.33,-192.07 1380.33,-192.07 1384.17,-192.07 1388,-195.9 1388,-199.74 1388,-199.74 1388,-207.4 1388,-207.4 1388,-211.24 1384.17,-215.07 1380.33,-215.07"/>
<text text-anchor="middle" x="1329.5" y="-199.87" font-family="Arial" font-size="14.00" fill="#cfffac">../domain/ratio.ts</text>
</g>
<!-- ../domain/length.ts&#45;&gt;../domain/ratio.ts -->
<g id="edge1" class="edge">
<title>../domain/length.ts&#45;&gt;../domain/ratio.ts</title>
<path fill="none" stroke="#757575" d="M1235.2,-215.49C1243.68,-214.41 1252.4,-213.29 1260.95,-212.2"/>
<polygon fill="#757575" stroke="#757575" points="1261.4,-215.67 1270.87,-210.93 1260.51,-208.73 1261.4,-215.67"/>
</g>
<!-- ../domain/point.ts -->
<g id="node3" class="node">
<title>../domain/point.ts</title>
<path fill="none" stroke="#c6c5fe" d="M1063.33,-311.07C1063.33,-311.07 958.67,-311.07 958.67,-311.07 954.83,-311.07 951,-307.24 951,-303.4 951,-303.4 951,-295.74 951,-295.74 951,-291.9 954.83,-288.07 958.67,-288.07 958.67,-288.07 1063.33,-288.07 1063.33,-288.07 1067.17,-288.07 1071,-291.9 1071,-295.74 1071,-295.74 1071,-303.4 1071,-303.4 1071,-307.24 1067.17,-311.07 1063.33,-311.07"/>
<text text-anchor="middle" x="1011" y="-295.87" font-family="Arial" font-size="14.00" fill="#c6c5fe">../domain/point.ts</text>
</g>
<!-- ../domain/point.ts&#45;&gt;../domain/length.ts -->
<g id="edge2" class="edge">
<title>../domain/point.ts&#45;&gt;../domain/length.ts</title>
<path fill="none" stroke="#757575" d="M1028.88,-288.03C1047.41,-275.75 1078.33,-256.37 1107,-243.57 1110.89,-241.83 1114.98,-240.18 1119.12,-238.62"/>
<polygon fill="#757575" stroke="#757575" points="1120.58,-241.81 1128.83,-235.16 1118.24,-235.22 1120.58,-241.81"/>
</g>
<!-- ../domain/rad.ts -->
<g id="node4" class="node">
<title>../domain/rad.ts</title>
<path fill="none" stroke="#c6c5fe" d="M1218.33,-276.07C1218.33,-276.07 1123.67,-276.07 1123.67,-276.07 1119.83,-276.07 1116,-272.24 1116,-268.4 1116,-268.4 1116,-260.74 1116,-260.74 1116,-256.9 1119.83,-253.07 1123.67,-253.07 1123.67,-253.07 1218.33,-253.07 1218.33,-253.07 1222.17,-253.07 1226,-256.9 1226,-260.74 1226,-260.74 1226,-268.4 1226,-268.4 1226,-272.24 1222.17,-276.07 1218.33,-276.07"/>
<text text-anchor="middle" x="1171" y="-260.87" font-family="Arial" font-size="14.00" fill="#c6c5fe">../domain/rad.ts</text>
</g>
<!-- ../domain/point.ts&#45;&gt;../domain/rad.ts -->
<g id="edge3" class="edge">
<title>../domain/point.ts&#45;&gt;../domain/rad.ts</title>
<path fill="none" stroke="#757575" d="M1064.17,-288.01C1078.2,-284.91 1093.5,-281.52 1108,-278.3"/>
<polygon fill="#757575" stroke="#757575" points="1108.88,-281.69 1117.88,-276.11 1107.36,-274.86 1108.88,-281.69"/>
</g>
<!-- ../domain/rad.ts&#45;&gt;../domain/ratio.ts -->
<g id="edge8" class="edge">
<title>../domain/rad.ts&#45;&gt;../domain/ratio.ts</title>
<path fill="none" stroke="#757575" d="M1208.49,-252.97C1217.23,-250.04 1226.49,-246.8 1235,-243.57 1254.64,-236.11 1276.21,-226.95 1293.69,-219.27"/>
<polygon fill="#757575" stroke="#757575" points="1295.21,-222.43 1302.94,-215.18 1292.38,-216.03 1295.21,-222.43"/>
</g>
<!-- ../domain/pointCalculator.ts -->
<g id="node5" class="node">
<title>../domain/pointCalculator.ts</title>
<path fill="none" stroke="#c6c5fe" d="M907.33,-233.07C907.33,-233.07 742.67,-233.07 742.67,-233.07 738.83,-233.07 735,-229.24 735,-225.4 735,-225.4 735,-217.74 735,-217.74 735,-213.9 738.83,-210.07 742.67,-210.07 742.67,-210.07 907.33,-210.07 907.33,-210.07 911.17,-210.07 915,-213.9 915,-217.74 915,-217.74 915,-225.4 915,-225.4 915,-229.24 911.17,-233.07 907.33,-233.07"/>
<text text-anchor="middle" x="825" y="-217.87" font-family="Arial" font-size="14.00" fill="#c6c5fe">../domain/pointCalculator.ts</text>
</g>
<!-- ../domain/pointCalculator.ts&#45;&gt;../domain/length.ts -->
<g id="edge4" class="edge">
<title>../domain/pointCalculator.ts&#45;&gt;../domain/length.ts</title>
<path fill="none" stroke="#757575" d="M915.04,-222.09C971.52,-222.42 1043.69,-222.83 1096.82,-223.14"/>
<polygon fill="#757575" stroke="#757575" points="1096.83,-226.64 1106.85,-223.2 1096.87,-219.64 1096.83,-226.64"/>
</g>
<!-- ../domain/pointCalculator.ts&#45;&gt;../domain/ratio.ts -->
<g id="edge7" class="edge">
<title>../domain/pointCalculator.ts&#45;&gt;../domain/ratio.ts</title>
<path fill="none" stroke="#757575" d="M915.14,-214C970.35,-209.69 1042.74,-204.74 1107,-202.57 1163.86,-200.65 1178.11,-202.27 1235,-202.57 1243.28,-202.61 1251.98,-202.68 1260.6,-202.76"/>
<polygon fill="#757575" stroke="#757575" points="1260.61,-206.26 1270.64,-202.85 1260.68,-199.26 1260.61,-206.26"/>
</g>
<!-- ../domain/pointCalculator.ts&#45;&gt;../domain/point.ts -->
<g id="edge5" class="edge">
<title>../domain/pointCalculator.ts&#45;&gt;../domain/point.ts</title>
<path fill="none" stroke="#757575" d="M853.15,-233.08C884.95,-246.56 937.78,-268.95 973.23,-283.98"/>
<polygon fill="#757575" stroke="#757575" points="972.17,-287.33 982.74,-288.01 974.9,-280.89 972.17,-287.33"/>
</g>
<!-- ../domain/pointCalculator.ts&#45;&gt;../domain/rad.ts -->
<g id="edge6" class="edge">
<title>../domain/pointCalculator.ts&#45;&gt;../domain/rad.ts</title>
<path fill="none" stroke="#757575" d="M915.1,-233.03C927.17,-234.56 939.39,-236.11 951,-237.57 1003.08,-244.11 1062.15,-251.39 1105.8,-256.73"/>
<polygon fill="#757575" stroke="#757575" points="1105.64,-260.24 1115.99,-257.98 1106.49,-253.29 1105.64,-260.24"/>
</g>
<!-- ../domain/time.ts -->
<g id="node6" class="node">
<title>../domain/time.ts</title>
<path fill="none" stroke="#c6c5fe" d="M1061.83,-117.07C1061.83,-117.07 960.17,-117.07 960.17,-117.07 956.33,-117.07 952.5,-113.24 952.5,-109.4 952.5,-109.4 952.5,-101.74 952.5,-101.74 952.5,-97.9 956.33,-94.07 960.17,-94.07 960.17,-94.07 1061.83,-94.07 1061.83,-94.07 1065.67,-94.07 1069.5,-97.9 1069.5,-101.74 1069.5,-101.74 1069.5,-109.4 1069.5,-109.4 1069.5,-113.24 1065.67,-117.07 1061.83,-117.07"/>
<text text-anchor="middle" x="1011" y="-101.87" font-family="Arial" font-size="14.00" fill="#c6c5fe">../domain/time.ts</text>
</g>
<!-- ../domain/time.ts&#45;&gt;../domain/ratio.ts -->
<g id="edge9" class="edge">
<title>../domain/time.ts&#45;&gt;../domain/ratio.ts</title>
<path fill="none" stroke="#757575" d="M1055.44,-117.08C1100.58,-129.26 1173.13,-149.47 1235,-169.57 1252.85,-175.37 1272.4,-182.37 1288.98,-188.51"/>
<polygon fill="#757575" stroke="#757575" points="1287.77,-191.8 1298.37,-192.01 1290.22,-185.24 1287.77,-191.8"/>
</g>
<!-- form/atoms.ts -->
<g id="node7" class="node">
<title>form/atoms.ts</title>
<path fill="none" stroke="#c6c5fe" d="M531.83,-95.07C531.83,-95.07 447.17,-95.07 447.17,-95.07 443.33,-95.07 439.5,-91.24 439.5,-87.4 439.5,-87.4 439.5,-79.74 439.5,-79.74 439.5,-75.9 443.33,-72.07 447.17,-72.07 447.17,-72.07 531.83,-72.07 531.83,-72.07 535.67,-72.07 539.5,-75.9 539.5,-79.74 539.5,-79.74 539.5,-87.4 539.5,-87.4 539.5,-91.24 535.67,-95.07 531.83,-95.07"/>
<text text-anchor="middle" x="489.5" y="-79.87" font-family="Arial" font-size="14.00" fill="#c6c5fe">form/atoms.ts</text>
</g>
<!-- lib/DOMHelper.ts -->
<g id="node8" class="node">
<title>lib/DOMHelper.ts</title>
<path fill="none" stroke="#cfffac" d="M691.33,-55.07C691.33,-55.07 586.67,-55.07 586.67,-55.07 582.83,-55.07 579,-51.24 579,-47.4 579,-47.4 579,-39.74 579,-39.74 579,-35.9 582.83,-32.07 586.67,-32.07 586.67,-32.07 691.33,-32.07 691.33,-32.07 695.17,-32.07 699,-35.9 699,-39.74 699,-39.74 699,-47.4 699,-47.4 699,-51.24 695.17,-55.07 691.33,-55.07"/>
<text text-anchor="middle" x="639" y="-39.87" font-family="Arial" font-size="14.00" fill="#cfffac">lib/DOMHelper.ts</text>
</g>
<!-- form/atoms.ts&#45;&gt;lib/DOMHelper.ts -->
<g id="edge10" class="edge">
<title>form/atoms.ts&#45;&gt;lib/DOMHelper.ts</title>
<path fill="none" stroke="#757575" d="M533.16,-72C549.52,-67.56 568.38,-62.45 585.55,-57.79"/>
<polygon fill="#757575" stroke="#757575" points="586.7,-61.11 595.43,-55.11 584.87,-54.35 586.7,-61.11"/>
</g>
<!-- form/form.ts -->
<g id="node9" class="node">
<title>form/form.ts</title>
<path fill="none" stroke="#c6c5fe" d="M369.83,-57.07C369.83,-57.07 295.17,-57.07 295.17,-57.07 291.33,-57.07 287.5,-53.24 287.5,-49.4 287.5,-49.4 287.5,-41.74 287.5,-41.74 287.5,-37.9 291.33,-34.07 295.17,-34.07 295.17,-34.07 369.83,-34.07 369.83,-34.07 373.67,-34.07 377.5,-37.9 377.5,-41.74 377.5,-41.74 377.5,-49.4 377.5,-49.4 377.5,-53.24 373.67,-57.07 369.83,-57.07"/>
<text text-anchor="middle" x="332.5" y="-41.87" font-family="Arial" font-size="14.00" fill="#c6c5fe">form/form.ts</text>
</g>
<!-- form/form.ts&#45;&gt;form/atoms.ts -->
<g id="edge11" class="edge">
<title>form/form.ts&#45;&gt;form/atoms.ts</title>
<path fill="none" stroke="#757575" d="M377.5,-56.36C394.34,-60.49 413.8,-65.25 431.67,-69.64"/>
<polygon fill="#757575" stroke="#757575" points="430.86,-73.04 441.41,-72.02 432.53,-66.24 430.86,-73.04"/>
</g>
<!-- form/form.ts&#45;&gt;lib/DOMHelper.ts -->
<g id="edge12" class="edge">
<title>form/form.ts&#45;&gt;lib/DOMHelper.ts</title>
<path fill="none" stroke="#757575" d="M377.78,-45.28C427.8,-44.95 509.87,-44.41 568.47,-44.03"/>
<polygon fill="#757575" stroke="#757575" points="568.78,-47.52 578.76,-43.96 568.74,-40.52 568.78,-47.52"/>
</g>
<!-- graph/atoms.ts -->
<g id="node10" class="node">
<title>graph/atoms.ts</title>
<path fill="none" stroke="#c6c5fe" d="M535.33,-136.07C535.33,-136.07 443.67,-136.07 443.67,-136.07 439.83,-136.07 436,-132.24 436,-128.4 436,-128.4 436,-120.74 436,-120.74 436,-116.9 439.83,-113.07 443.67,-113.07 443.67,-113.07 535.33,-113.07 535.33,-113.07 539.17,-113.07 543,-116.9 543,-120.74 543,-120.74 543,-128.4 543,-128.4 543,-132.24 539.17,-136.07 535.33,-136.07"/>
<text text-anchor="middle" x="489.5" y="-120.87" font-family="Arial" font-size="14.00" fill="#c6c5fe">graph/atoms.ts</text>
</g>
<!-- graph/atoms.ts&#45;&gt;lib/DOMHelper.ts -->
<g id="edge13" class="edge">
<title>graph/atoms.ts&#45;&gt;lib/DOMHelper.ts</title>
<path fill="none" stroke="#757575" d="M522.01,-113.05C529.03,-110.19 536.35,-106.96 543,-103.57 567.9,-90.86 594.69,-73.58 613.45,-60.83"/>
<polygon fill="#757575" stroke="#757575" points="615.46,-63.69 621.73,-55.14 611.5,-57.92 615.46,-63.69"/>
</g>
<!-- task/task.ts -->
<g id="node11" class="node">
<title>task/task.ts</title>
<path fill="none" stroke="#c6c5fe" d="M673.33,-195.07C673.33,-195.07 604.67,-195.07 604.67,-195.07 600.83,-195.07 597,-191.24 597,-187.4 597,-187.4 597,-179.74 597,-179.74 597,-175.9 600.83,-172.07 604.67,-172.07 604.67,-172.07 673.33,-172.07 673.33,-172.07 677.17,-172.07 681,-175.9 681,-179.74 681,-179.74 681,-187.4 681,-187.4 681,-191.24 677.17,-195.07 673.33,-195.07"/>
<text text-anchor="middle" x="639" y="-179.87" font-family="Arial" font-size="14.00" fill="#c6c5fe">task/task.ts</text>
</g>
<!-- graph/atoms.ts&#45;&gt;task/task.ts -->
<g id="edge14" class="edge">
<title>graph/atoms.ts&#45;&gt;task/task.ts</title>
<path fill="none" stroke="#757575" d="M519.29,-136.09C542.16,-145.23 574.36,-158.11 599.45,-168.15"/>
<polygon fill="#757575" stroke="#757575" points="598.45,-171.52 609.03,-171.98 601.05,-165.02 598.45,-171.52"/>
</g>
<!-- task/task.ts&#45;&gt;../domain/length.ts -->
<g id="edge27" class="edge">
<title>task/task.ts&#45;&gt;../domain/length.ts</title>
<path fill="none" stroke="#757575" d="M681.02,-185.74C734.79,-188.68 832.01,-194.26 915,-200.57 976.27,-205.23 1045.72,-211.56 1096.65,-216.4"/>
<polygon fill="#757575" stroke="#757575" points="1096.62,-219.91 1106.9,-217.38 1097.28,-212.95 1096.62,-219.91"/>
</g>
<!-- task/task.ts&#45;&gt;../domain/point.ts -->
<g id="edge28" class="edge">
<title>task/task.ts&#45;&gt;../domain/point.ts</title>
<path fill="none" stroke="#757575" d="M655.26,-195.17C673.34,-208.35 704.83,-229.59 735,-241.57 802.38,-268.32 884.18,-283.56 940.97,-291.64"/>
<polygon fill="#757575" stroke="#757575" points="940.53,-295.11 950.91,-293.01 941.49,-288.17 940.53,-295.11"/>
</g>
<!-- task/task.ts&#45;&gt;../domain/pointCalculator.ts -->
<g id="edge29" class="edge">
<title>task/task.ts&#45;&gt;../domain/pointCalculator.ts</title>
<path fill="none" stroke="#757575" d="M681.29,-192.1C703.93,-196.77 732.52,-202.68 758.16,-207.97"/>
<polygon fill="#757575" stroke="#757575" points="757.69,-211.45 768.19,-210.04 759.11,-204.59 757.69,-211.45"/>
</g>
<!-- task/task.ts&#45;&gt;../domain/time.ts -->
<g id="edge30" class="edge">
<title>task/task.ts&#45;&gt;../domain/time.ts</title>
<path fill="none" stroke="#757575" d="M656.23,-171.98C674.45,-159.64 705.34,-140.66 735,-131.57 803.41,-110.59 885.5,-105.23 942.08,-104.42"/>
<polygon fill="#757575" stroke="#757575" points="942.37,-107.91 952.34,-104.31 942.3,-100.91 942.37,-107.91"/>
</g>
<!-- graph/moleculers.ts -->
<g id="node12" class="node">
<title>graph/moleculers.ts</title>
<path fill="none" stroke="#c6c5fe" d="M392.33,-175.07C392.33,-175.07 272.67,-175.07 272.67,-175.07 268.83,-175.07 265,-171.24 265,-167.4 265,-167.4 265,-159.74 265,-159.74 265,-155.9 268.83,-152.07 272.67,-152.07 272.67,-152.07 392.33,-152.07 392.33,-152.07 396.17,-152.07 400,-155.9 400,-159.74 400,-159.74 400,-167.4 400,-167.4 400,-171.24 396.17,-175.07 392.33,-175.07"/>
<text text-anchor="middle" x="332.5" y="-159.87" font-family="Arial" font-size="14.00" fill="#c6c5fe">graph/moleculers.ts</text>
</g>
<!-- graph/moleculers.ts&#45;&gt;graph/atoms.ts -->
<g id="edge15" class="edge">
<title>graph/moleculers.ts&#45;&gt;graph/atoms.ts</title>
<path fill="none" stroke="#757575" d="M379.59,-151.97C396.22,-147.79 415.18,-143.02 432.57,-138.64"/>
<polygon fill="#757575" stroke="#757575" points="433.75,-141.95 442.59,-136.12 432.04,-135.17 433.75,-141.95"/>
</g>
<!-- graph/moleculers.ts&#45;&gt;task/task.ts -->
<g id="edge16" class="edge">
<title>graph/moleculers.ts&#45;&gt;task/task.ts</title>
<path fill="none" stroke="#757575" d="M400.32,-167.96C456.34,-171.64 535.16,-176.81 586.41,-180.18"/>
<polygon fill="#757575" stroke="#757575" points="586.39,-183.69 596.59,-180.85 586.85,-176.7 586.39,-183.69"/>
</g>
<!-- graph/organisms.ts -->
<g id="node13" class="node">
<title>graph/organisms.ts</title>
<path fill="none" stroke="#c6c5fe" d="M221.33,-155.07C221.33,-155.07 104.67,-155.07 104.67,-155.07 100.83,-155.07 97,-151.24 97,-147.4 97,-147.4 97,-139.74 97,-139.74 97,-135.9 100.83,-132.07 104.67,-132.07 104.67,-132.07 221.33,-132.07 221.33,-132.07 225.17,-132.07 229,-135.9 229,-139.74 229,-139.74 229,-147.4 229,-147.4 229,-151.24 225.17,-155.07 221.33,-155.07"/>
<text text-anchor="middle" x="163" y="-139.87" font-family="Arial" font-size="14.00" fill="#c6c5fe">graph/organisms.ts</text>
</g>
<!-- graph/organisms.ts&#45;&gt;graph/atoms.ts -->
<g id="edge17" class="edge">
<title>graph/organisms.ts&#45;&gt;graph/atoms.ts</title>
<path fill="none" stroke="#757575" d="M229.28,-139.75C286.51,-136.4 369.18,-131.56 425.67,-128.25"/>
<polygon fill="#757575" stroke="#757575" points="426.13,-131.73 435.9,-127.65 425.72,-124.74 426.13,-131.73"/>
</g>
<!-- graph/organisms.ts&#45;&gt;task/task.ts -->
<g id="edge19" class="edge">
<title>graph/organisms.ts&#45;&gt;task/task.ts</title>
<path fill="none" stroke="#757575" d="M186.56,-155.15C206.58,-164.77 236.92,-177.79 265,-183.57 377.89,-206.83 514.12,-197.74 586.66,-190.05"/>
<polygon fill="#757575" stroke="#757575" points="587.33,-193.49 596.89,-188.93 586.56,-186.54 587.33,-193.49"/>
</g>
<!-- graph/organisms.ts&#45;&gt;graph/moleculers.ts -->
<g id="edge18" class="edge">
<title>graph/organisms.ts&#45;&gt;graph/moleculers.ts</title>
<path fill="none" stroke="#757575" d="M229.24,-151.36C237.62,-152.36 246.27,-153.39 254.82,-154.41"/>
<polygon fill="#757575" stroke="#757575" points="254.44,-157.89 264.78,-155.6 255.27,-150.94 254.44,-157.89"/>
</g>
<!-- graph/templates.ts -->
<g id="node14" class="node">
<title>graph/templates.ts</title>
<path fill="none" stroke="#c6c5fe" d="M219.33,-75.07C219.33,-75.07 106.67,-75.07 106.67,-75.07 102.83,-75.07 99,-71.24 99,-67.4 99,-67.4 99,-59.74 99,-59.74 99,-55.9 102.83,-52.07 106.67,-52.07 106.67,-52.07 219.33,-52.07 219.33,-52.07 223.17,-52.07 227,-55.9 227,-59.74 227,-59.74 227,-67.4 227,-67.4 227,-71.24 223.17,-75.07 219.33,-75.07"/>
<text text-anchor="middle" x="163" y="-59.87" font-family="Arial" font-size="14.00" fill="#c6c5fe">graph/templates.ts</text>
</g>
<!-- graph/templates.ts&#45;&gt;lib/DOMHelper.ts -->
<g id="edge22" class="edge">
<title>graph/templates.ts&#45;&gt;lib/DOMHelper.ts</title>
<path fill="none" stroke="#757575" d="M186.95,-51.89C206.97,-42.4 237.1,-29.77 265,-24.57 369.56,-5.08 493.27,-18.37 568.66,-30.43"/>
<polygon fill="#757575" stroke="#757575" points="568.53,-33.96 578.97,-32.12 569.66,-27.05 568.53,-33.96"/>
</g>
<!-- graph/templates.ts&#45;&gt;form/form.ts -->
<g id="edge20" class="edge">
<title>graph/templates.ts&#45;&gt;form/form.ts</title>
<path fill="none" stroke="#757575" d="M227.32,-56.76C243.74,-55 261.27,-53.12 277.18,-51.41"/>
<polygon fill="#757575" stroke="#757575" points="277.8,-54.86 287.37,-50.31 277.05,-47.9 277.8,-54.86"/>
</g>
<!-- graph/templates.ts&#45;&gt;graph/atoms.ts -->
<g id="edge21" class="edge">
<title>graph/templates.ts&#45;&gt;graph/atoms.ts</title>
<path fill="none" stroke="#757575" d="M225.42,-75.11C282.79,-85.9 368.03,-101.92 425.81,-112.79"/>
<polygon fill="#757575" stroke="#757575" points="425.44,-116.28 435.91,-114.68 426.73,-109.4 425.44,-116.28"/>
</g>
<!-- main.ts -->
<g id="node15" class="node">
<title>main.ts</title>
<path fill="none" stroke="#c6c5fe" d="M53.33,-114.07C53.33,-114.07 7.67,-114.07 7.67,-114.07 3.83,-114.07 0,-110.24 0,-106.4 0,-106.4 0,-98.74 0,-98.74 0,-94.9 3.83,-91.07 7.67,-91.07 7.67,-91.07 53.33,-91.07 53.33,-91.07 57.17,-91.07 61,-94.9 61,-98.74 61,-98.74 61,-106.4 61,-106.4 61,-110.24 57.17,-114.07 53.33,-114.07"/>
<text text-anchor="middle" x="30.5" y="-98.87" font-family="Arial" font-size="14.00" fill="#c6c5fe">main.ts</text>
</g>
<!-- main.ts&#45;&gt;lib/DOMHelper.ts -->
<g id="edge25" class="edge">
<title>main.ts&#45;&gt;lib/DOMHelper.ts</title>
<path fill="none" stroke="#757575" d="M40.76,-90.76C52.35,-76.88 73.53,-54.26 97,-42.57 164.97,-8.72 189.39,-18.49 265,-11.57 388.04,-0.31 421.05,7.26 543,-12.57 562.47,-15.74 583.38,-22.2 600.61,-28.42"/>
<polygon fill="#757575" stroke="#757575" points="599.71,-31.81 610.3,-32.02 602.15,-25.25 599.71,-31.81"/>
</g>
<!-- main.ts&#45;&gt;task/task.ts -->
<g id="edge26" class="edge">
<title>main.ts&#45;&gt;task/task.ts</title>
<path fill="none" stroke="#757575" d="M40.85,-114.33C52.52,-128.2 73.78,-150.96 97,-163.57 164.64,-200.29 188.76,-195.05 265,-205.57 387.42,-222.46 420.61,-227.62 543,-210.57 560.72,-208.1 579.78,-203.16 596.14,-198.17"/>
<polygon fill="#757575" stroke="#757575" points="597.46,-201.42 605.94,-195.08 595.35,-194.75 597.46,-201.42"/>
</g>
<!-- main.ts&#45;&gt;graph/organisms.ts -->
<g id="edge23" class="edge">
<title>main.ts&#45;&gt;graph/organisms.ts</title>
<path fill="none" stroke="#757575" d="M61.11,-111.87C77.1,-116.9 97.21,-123.21 115.26,-128.88"/>
<polygon fill="#757575" stroke="#757575" points="114.45,-132.3 125.03,-131.96 116.54,-125.62 114.45,-132.3"/>
</g>
<!-- main.ts&#45;&gt;graph/templates.ts -->
<g id="edge24" class="edge">
<title>main.ts&#45;&gt;graph/templates.ts</title>
<path fill="none" stroke="#757575" d="M61.11,-93.72C76.45,-89.14 95.58,-83.42 113.04,-78.2"/>
<polygon fill="#757575" stroke="#757575" points="114.52,-81.41 123.09,-75.2 112.51,-74.71 114.52,-81.41"/>
</g>
</g>
</svg>
